<?xml version="1.0" standalone="no"?><!DOCTYPE svg PUBLIC "-//W3C//DTD SVG 1.1//EN" "http://www.w3.org/Graphics/SVG/1.1/DTD/svg11.dtd"><svg t="1720775087311" class="icon" viewBox="0 0 1024 1024" version="1.1" xmlns="http://www.w3.org/2000/svg" p-id="14906" xmlns:xlink="http://www.w3.org/1999/xlink" width="200" height="200"><path d="M511.488 111.0016l224.512 227.84-52.1728 52.1728L511.488 218.624 339.1488 391.0144l-52.1728-52.224L511.488 111.0528z m-0.256 523.3152c33.024 0 57.0368 24.0128 57.0368 56.9856 0 32.6656-23.552 56.4736-56.064 56.9856H311.7056c-33.024 0-57.0368-24.0128-57.0368-56.9856 0-32.6656 23.552-56.4736 56.064-56.9344h200.4992z m256.0512-88.8832c0.5632-32.9728-23.04-57.344-56.0128-57.9584l-396.032 0.3072h-0.9728c-32.512-0.1024-56.4736 23.3472-57.0368 56.0128-0.5632 32.9216 23.04 57.344 56.064 57.9072l395.9808-0.3072h1.024c32.4608 0.1024 56.4224-23.3472 56.9856-55.9616z" fill="#39D2C4" p-id="14907"></path><path d="M438.016 153.4976a73.5232 73.5232 0 1 1 146.944 0 73.5232 73.5232 0 0 1-146.944 0z m392.96 182.4768c48.5376 0 88.2176 39.2192 88.9856 87.552v384.4608c0 48.5376-39.168 88.2176-87.552 88.9856H192a89.1904 89.1904 0 0 1-88.9856-87.5008V425.0112c0-48.5376 39.2192-88.2176 87.552-88.9856H830.976z m-25.1392 114.176H217.1904v332.6976h588.6464V450.1504z" fill="#40B1BA" p-id="14908"></path></svg>